<svg width="107" height="107" viewBox="0 0 107 107" fill="none" xmlns="http://www.w3.org/2000/svg">
<g clip-path="url(#clip0_3:6171)">
<path d="M18.96 18.95C23.6091 14.2901 29.1632 10.6316 35.28 8.19995C42.9543 16.9683 47.7902 27.8571 49.15 39.4299C43.9869 37.5963 38.41 37.2628 33.0653 38.468C27.7204 39.6732 22.8264 42.3679 18.95 46.24C13.7049 51.4889 10.6764 58.5522 10.4903 65.9703C10.3042 73.3884 12.9747 80.5946 17.95 86.1C9.36067 76.9697 4.66271 64.8544 4.85123 52.3203C5.03975 39.7863 10.0999 27.8178 18.96 18.95Z" fill="#CC5252"/>
<path d="M49.16 39.4399C47.8003 27.8671 42.9643 16.9783 35.29 8.20995C43.1135 5.11147 51.6101 4.10841 59.94 5.29995C65.3181 10.6742 69.5845 17.0556 72.4954 24.0794C75.4062 31.1033 76.9045 38.6318 76.9045 46.2349C76.9045 53.838 75.4062 61.3666 72.4954 68.3904C69.5845 75.4143 65.3181 81.7956 59.94 87.1699C54.6838 92.4017 47.6229 95.4209 40.2091 95.6069C32.7953 95.7929 25.5919 93.1315 20.08 88.1699L19.9 87.9999C19.78 87.8999 19.67 87.7799 19.55 87.6699C21.3971 89.246 23.7705 90.0679 26.1968 89.9715C28.623 89.8751 30.9237 88.8676 32.64 87.1499C38.8224 80.9646 43.5213 73.4574 46.3827 65.1934C49.2442 56.9294 50.1938 48.124 49.16 39.4399Z" fill="#FF9988"/>
<path d="M49.16 39.4399C47.8003 27.8671 42.9643 16.9783 35.29 8.20995C43.1135 5.11147 51.6101 4.10841 59.94 5.29995C65.3181 10.6742 69.5845 17.0556 72.4954 24.0794C75.4062 31.1033 76.9045 38.6318 76.9045 46.2349C76.9045 53.838 75.4062 61.3666 72.4954 68.3904C69.5845 75.4143 65.3181 81.7956 59.94 87.1699C54.6838 92.4017 47.6229 95.4209 40.2091 95.6069C32.7953 95.7929 25.5919 93.1315 20.08 88.1699L19.9 87.9999C19.78 87.8999 19.67 87.7799 19.55 87.6699C21.3971 89.246 23.7705 90.0679 26.1968 89.9715C28.623 89.8751 30.9237 88.8676 32.64 87.1499C38.8224 80.9646 43.5213 73.4574 46.3827 65.1934C49.2442 56.9294 50.1938 48.124 49.16 39.4399Z" fill="#75EFBC"/>
<path d="M18.94 73.57C20.7583 71.8113 23.1944 70.8369 25.724 70.8566C28.2536 70.8763 30.6743 71.8885 32.465 73.6752C34.2557 75.462 35.2732 77.8805 35.2985 80.41C35.3237 82.9396 34.3547 85.3778 32.6 87.2C30.8837 88.9176 28.583 89.9251 26.1568 90.0215C23.7305 90.1179 21.3571 89.2961 19.51 87.72L18.97 87.19L18.43 86.64C16.8584 84.7954 16.0383 82.4269 16.1328 80.0054C16.2273 77.5839 17.2294 75.2866 18.94 73.57Z" fill="#FFEBD4"/>
<path d="M20.66 78.6699C21.1122 78.2164 21.726 77.9611 22.3665 77.9602C23.0069 77.9593 23.6215 78.2127 24.075 78.6649C24.5285 79.1171 24.7838 79.731 24.7848 80.3714C24.7857 81.0118 24.5322 81.6264 24.08 82.08C23.6513 82.5092 23.0766 82.761 22.4705 82.7851C21.8643 82.8092 21.2714 82.6038 20.81 82.21L20.67 82.08L20.54 81.9399C20.1449 81.4798 19.9377 80.8876 19.96 80.2814C19.9822 79.6753 20.2322 79.0999 20.66 78.6699Z" fill="white"/>
<path d="M59.94 5.30005C67.4462 6.37656 74.5931 9.20674 80.8013 13.5612C87.0095 17.9156 92.1042 23.6717 95.6723 30.3627C99.2405 37.0538 101.182 44.4916 101.339 52.073C101.495 59.6544 99.8635 67.1661 96.5751 73.999C93.2868 80.8319 88.4346 86.7938 82.4118 91.4013C76.3891 96.0088 69.3653 99.1322 61.91 100.518C54.4548 101.904 46.7778 101.514 39.5015 99.3791C32.2252 97.2441 25.5545 93.4245 20.03 88.23C25.542 93.1916 32.7453 95.853 40.1591 95.667C47.5729 95.481 54.6338 92.4618 59.89 87.23C65.2804 81.8579 69.5583 75.4754 72.4788 68.4478C75.3992 61.4203 76.9049 53.8857 76.9095 46.2754C76.9142 38.6652 75.4177 31.1287 72.5058 24.0976C69.594 17.0665 65.3239 10.6787 59.94 5.30005Z" fill="#F85F00"/>
<path d="M20.92 89.04L20.15 88.3301C25.6727 93.2382 32.8606 95.8533 40.2461 95.6415C47.6316 95.4296 54.6577 92.4067 59.89 87.1901C65.2681 81.8158 69.5345 75.4344 72.4454 68.4106C75.3562 61.3868 76.8545 53.8582 76.8545 46.2551C76.8545 38.652 75.3562 31.1234 72.4454 24.0995C69.5345 17.0757 65.2681 10.6943 59.89 5.32007C66.9583 6.32123 73.7132 8.8906 79.66 12.8401C87.5759 23.9617 91.3052 37.5238 90.189 51.1292C89.0728 64.7345 83.1828 77.5073 73.56 87.1901L73.46 87.29C66.5891 94.1239 57.3991 98.1233 47.7154 98.4938C38.0318 98.8644 28.563 95.5789 21.19 89.29L20.92 89.04Z" fill="#A3F5D2"/>
<path d="M46.24 87.2C42.8051 90.6311 38.2022 92.6399 33.3508 92.8253C28.4994 93.0107 23.7567 91.3589 20.07 88.2L19.85 88.0201L19.53 87.7101L18.99 87.18C20.799 88.9845 23.2499 89.9979 25.805 89.9979C28.3601 89.9979 30.811 88.9845 32.62 87.18C42.9968 76.8037 49.0449 62.8731 49.5406 48.2068C50.0363 33.5404 44.9426 19.2333 35.29 8.18002C38.8123 6.7833 42.4881 5.80982 46.24 5.28003C51.6244 10.6559 55.8961 17.0406 58.8106 24.069C61.7252 31.0973 63.2253 38.6314 63.2253 46.2401C63.2253 53.8487 61.7252 61.3828 58.8106 68.4111C55.8961 75.4394 51.6244 81.8242 46.24 87.2Z" fill="#A3F5D2"/>
<path d="M33.56 3.71999C25.5118 6.91089 18.3663 12.022 12.7464 18.6077C7.12645 25.1935 3.20277 33.0539 1.31734 41.5038C-0.568077 49.9537 -0.358003 58.7365 1.92928 67.0866C4.21657 75.4367 8.51162 83.1005 14.44 89.41L14.6 89.59C14.77 89.78 14.95 89.96 15.13 90.15C15.41 90.46 15.72 90.77 16.03 91.06L16.59 91.58L16.82 91.79C22.8913 97.4781 30.2146 101.659 38.1991 103.997C46.1836 106.334 54.6057 106.762 62.7859 105.245C70.966 103.729 78.6753 100.311 85.2915 95.2671C91.9078 90.2232 97.2458 83.6949 100.875 76.2085C104.504 68.7222 106.322 60.4877 106.184 52.1693C106.045 43.8509 103.953 35.6815 100.076 28.3204C96.1994 20.9593 90.6467 14.6125 83.8659 9.79213C77.0851 4.97174 69.2662 1.81274 61.04 0.569993C60.7598 0.510435 60.4758 0.470344 60.19 0.449998C51.1815 -0.761157 42.0128 0.357808 33.56 3.7V3.71999ZM57.7 9.87999C67.1251 19.9403 72.2735 33.2685 72.0589 47.0524C71.8444 60.8364 66.2836 73.9979 56.55 83.76L56.45 83.87C53.8035 86.4965 50.5837 88.4731 47.0439 89.6444C43.5041 90.8157 39.7407 91.1496 36.05 90.62C42.7489 83.9477 47.8432 75.8398 50.9477 66.9091C54.0522 57.9784 55.0857 48.4588 53.97 39.07C53.9754 39.0068 53.9754 38.9432 53.97 38.88C52.7906 28.79 49.1581 19.1423 43.39 10.78C48.0625 9.70504 52.8794 9.40104 57.65 9.87999H57.7ZM83.84 83.78C76.2682 91.4319 66.1193 95.9912 55.37 96.57C58.2891 94.9993 60.9639 93.0118 63.31 90.67C63.37 90.61 63.42 90.54 63.47 90.48C73.2084 80.65 79.4301 67.8806 81.1695 54.1532C82.9089 40.4259 80.0688 26.5083 73.09 14.56C79.1443 17.7106 84.3716 22.2425 88.3489 27.7888C92.3262 33.3352 94.9417 39.7401 95.9835 46.4851C97.0254 53.2301 96.4645 60.1257 94.3461 66.6136C92.2277 73.1015 88.6114 78.9994 83.79 83.83L83.84 83.78Z" fill="#19E58F"/>
</g>
<defs>
<clipPath id="clip0_3:6171">
<rect width="106.14" height="106.16" fill="white"/>
</clipPath>
</defs>
</svg>
