<svg width="334" height="98" viewBox="0 0 334 98" fill="none" xmlns="http://www.w3.org/2000/svg">
<g clip-path="url(#clip0_49:92)">
<path d="M17.5536 17.5026C21.8547 13.1926 27.0016 9.81425 32.6723 7.57886C39.7795 15.6755 44.2569 25.7309 45.5135 36.4176C40.7342 34.7237 35.5715 34.4143 30.6233 35.5253C25.675 36.6362 21.1435 39.1221 17.5536 42.6949C12.7072 47.5476 9.91027 54.0676 9.73806 60.9137C9.56584 67.7599 12.0315 74.4115 16.6278 79.5003C8.67375 71.0715 4.32238 59.8866 4.49519 48.3144C4.668 36.7423 9.35142 25.6915 17.5536 17.5026Z" fill="#CC5252"/>
<path d="M45.5135 36.4176C44.257 25.7309 39.7795 15.6755 32.6723 7.57888C39.9164 4.7221 47.7826 3.79934 55.4939 4.90178C60.472 9.86357 64.4209 15.7547 67.1152 22.2385C69.8094 28.7224 71.1961 35.672 71.1961 42.6903C71.1961 49.7087 69.8094 56.6582 67.1152 63.1421C64.4209 69.626 60.472 75.5171 55.4939 80.4788C50.6271 85.3111 44.0881 88.1 37.222 88.2717C30.3559 88.4434 23.6849 85.9849 18.5813 81.402L18.4146 81.245L18.0999 80.9312C19.8064 82.3887 22.002 83.15 24.2473 83.0627C26.4926 82.9754 28.6221 82.046 30.2096 80.4604C35.9379 74.7533 40.2918 67.8237 42.9428 60.1944C45.5938 52.565 46.4728 44.435 45.5135 36.4176Z" fill="#FF9988"/>
<path d="M45.5135 36.4176C44.257 25.7309 39.7795 15.6755 32.6723 7.57888C39.9164 4.7221 47.7826 3.79934 55.4939 4.90178C60.472 9.86357 64.4209 15.7547 67.1152 22.2385C69.8094 28.7224 71.1961 35.672 71.1961 42.6903C71.1961 49.7087 69.8094 56.6582 67.1152 63.1421C64.4209 69.626 60.472 75.5171 55.4939 80.4788C50.6271 85.3111 44.0881 88.1 37.222 88.2717C30.3559 88.4434 23.6849 85.9849 18.5813 81.402L18.4146 81.245L18.0999 80.9312C19.8064 82.3887 22.002 83.15 24.2473 83.0627C26.4926 82.9754 28.6221 82.046 30.2096 80.4604C35.9379 74.7533 40.2918 67.8237 42.9428 60.1944C45.5938 52.565 46.4728 44.435 45.5135 36.4176Z" fill="#75EFBC"/>
<path d="M17.5351 67.915C18.3643 67.087 19.3489 66.43 20.4327 65.9814C21.5166 65.5328 22.6784 65.3015 23.8519 65.3007C25.0254 65.2998 26.1876 65.5294 27.2721 65.9764C28.3566 66.4234 29.3422 67.079 30.1726 67.9058C31.003 68.7325 31.6619 69.7143 32.1118 70.795C32.5617 71.8757 32.7936 73.0342 32.7945 74.2042C32.7954 75.3743 32.5651 76.5331 32.1168 77.6145C31.6685 78.6958 31.011 79.6786 30.1818 80.5066C28.5943 82.0922 26.4648 83.0216 24.2195 83.1089C21.9742 83.1962 19.7786 82.4349 18.072 80.9773C17.8961 80.8204 17.7295 80.6543 17.5628 80.4881L17.0722 79.9896C15.6112 78.2882 14.8474 76.1001 14.9332 73.8619C15.019 71.6238 15.9481 69.5002 17.5351 67.915Z" fill="#FFEBD4"/>
<path d="M19.1275 72.623C19.5462 72.2056 20.114 71.9711 20.7061 71.9711C21.2981 71.9711 21.8659 72.2056 22.2846 72.623C22.7032 73.0405 22.9384 73.6066 22.9384 74.197C22.9384 74.7873 22.7032 75.3535 22.2846 75.7709C21.8865 76.1658 21.3538 76.3966 20.7926 76.4171C20.2314 76.4377 19.6832 76.2465 19.2571 75.8817C19.2147 75.844 19.1745 75.804 19.1368 75.7617L19.0072 75.6417C18.6446 75.2149 18.4557 74.6679 18.478 74.109C18.5003 73.5501 18.7321 73.0198 19.1275 72.623Z" fill="white"/>
<path d="M55.4939 4.90186C62.4433 5.89562 69.0601 8.50827 74.8077 12.528C80.5554 16.5477 85.2722 21.8614 88.5757 28.0381C91.8791 34.2149 93.6763 41.0809 93.8216 48.0796C93.9668 55.0783 92.4559 62.0125 89.4115 68.3203C86.3671 74.628 81.8748 80.1316 76.2988 84.3849C70.7228 88.6383 64.22 91.5216 57.3178 92.8011C50.4155 94.0806 43.308 93.7203 36.5714 91.7495C29.8349 89.7786 23.6589 86.2527 18.5443 81.4574C23.6479 86.0404 30.3189 88.4989 37.1849 88.3271C44.051 88.1554 50.59 85.3666 55.4568 80.5343C60.4457 75.5739 64.4046 69.6813 67.1069 63.1936C69.8092 56.706 71.202 49.7507 71.2054 42.7257C71.2088 35.7008 69.8229 28.7441 67.1269 22.2539C64.431 15.7636 60.4779 9.86709 55.4939 4.90186Z" fill="#F85F00"/>
<path d="M19.3775 82.1959C19.1368 81.9835 18.8961 81.7712 18.6646 81.5497C23.7777 86.0806 30.4324 88.4947 37.27 88.2991C44.1077 88.1035 50.6127 85.313 55.4568 80.4973C60.4352 75.5347 64.3844 69.6428 67.0787 63.1582C69.7731 56.6736 71.1599 49.7232 71.1599 42.7041C71.1599 35.685 69.7731 28.7347 67.0787 22.2501C64.3844 15.7655 60.4352 9.87359 55.4568 4.91101C62.0107 5.83558 68.2759 8.20381 73.7974 11.8437C81.1271 22.1206 84.5751 34.6513 83.5314 47.2189C82.4877 59.7865 77.0195 71.581 68.0943 80.5158L68.0017 80.6081C61.633 86.9107 53.1199 90.5946 44.1531 90.9281C35.1863 91.2615 26.4216 88.2203 19.5997 82.4082L19.3775 82.1959Z" fill="#A3F5D2"/>
<path d="M42.81 80.4974C39.6299 83.6647 35.3685 85.5191 30.877 85.6902C26.3854 85.8614 21.9945 84.3366 18.5812 81.4205L18.3776 81.2636L18.0906 80.9774C17.9147 80.8205 17.748 80.6543 17.5814 80.4882C19.2562 82.1539 21.5252 83.0894 23.8908 83.0894C26.2564 83.0894 28.5255 82.1539 30.2003 80.4882C39.8095 70.9105 45.4103 58.0504 45.8692 44.5107C46.3282 30.9711 41.6109 17.7632 32.6723 7.56051C35.9471 6.2645 39.3663 5.36569 42.8563 4.88342C47.8381 9.84831 51.7891 15.7439 54.4833 22.2329C57.1776 28.7219 58.5621 35.6769 58.5578 42.7C58.5535 49.7231 57.1604 56.6764 54.4583 63.1621C51.7561 69.6478 47.7978 75.5386 42.81 80.4974Z" fill="#A3F5D2"/>
<path d="M31.0243 3.43387C23.5746 6.38251 16.9609 11.1027 11.7593 17.1832C6.55775 23.2636 2.92613 30.5201 1.18081 38.3203C-0.564515 46.1205 -0.370609 54.2279 1.74564 61.9362C3.86188 69.6446 7.83627 76.7202 13.3226 82.5465L13.48 82.7127L13.9614 83.2296C14.2299 83.5158 14.5077 83.802 14.8039 84.0605L15.3131 84.5405L15.5353 84.7436C21.1559 89.9932 27.9352 93.8521 35.3264 96.0092C42.7176 98.1662 50.5138 98.561 58.0861 97.1617C65.6585 95.7624 72.795 92.6081 78.9201 87.9533C85.0451 83.2985 89.9873 77.2735 93.3479 70.3643C96.7085 63.455 98.3935 55.855 98.267 48.1771C98.1404 40.4992 96.2059 32.9584 92.6195 26.163C89.033 19.3676 83.895 13.5077 77.6198 9.05611C71.3447 4.60449 64.1081 1.68573 56.4937 0.535227C56.2361 0.470608 55.9723 0.433479 55.7068 0.424455C47.3749 -0.693394 38.8947 0.329792 31.0706 3.39695L31.0243 3.43387ZM53.383 9.12961C62.1077 18.4178 66.8726 30.7223 66.6722 43.4467C66.4719 56.1711 61.3219 68.3203 52.309 77.3308L52.2627 77.3862C49.8139 79.8131 46.8333 81.6399 43.5559 82.7228C40.2785 83.8057 36.7937 84.1151 33.3759 83.6266C39.577 77.4646 44.2927 69.9781 47.1668 61.7326C50.0409 53.4871 50.9983 44.6982 49.9667 36.0298C49.9667 35.9744 49.9667 35.919 49.9667 35.8636C48.8678 26.5508 45.5054 17.6464 40.1715 9.92351C44.5016 8.93673 48.9653 8.6685 53.383 9.12961ZM77.5747 77.3862C70.5654 84.4119 61.188 88.5902 51.2628 89.11C53.9687 87.6614 56.4457 85.8231 58.6139 83.6543L58.7713 83.4881C67.7838 74.4095 73.5407 62.6197 75.1493 49.9468C76.7579 37.2738 74.1284 24.4257 67.6684 13.3945C73.2819 16.3012 78.1292 20.4862 81.8172 25.6102C85.5052 30.7341 87.93 36.6526 88.8949 42.8857C89.8598 49.1188 89.3377 55.4909 87.3709 61.4852C85.4041 67.4795 82.0479 72.9271 77.5747 77.3862Z" fill="#19E58F"/>
<path d="M113.08 37.2583C113.08 32.7349 122.773 32.4487 126.467 32.4487C132.893 32.4487 140.225 33.3719 140.225 41.4124C140.225 44.5233 139.04 46.9512 135.92 48.1051C139.623 48.8067 141.475 50.8745 141.475 55.1301C141.475 64.8877 132.161 65.737 126.153 65.737C124.07 65.737 113.099 65.737 113.099 61.3059L113.08 37.2583ZM126.847 45.0772C131.05 45.0772 132.189 44.0895 132.189 42.1509C132.189 40.5077 131.337 39.0399 126.792 39.0399C124.894 39.0281 122.999 39.1701 121.125 39.4645V45.0772H126.847ZM121.125 51.6315V58.7027C122.919 59.0216 124.739 59.1638 126.56 59.1273C131.189 59.1273 133.319 58.4627 133.319 55.4348C133.319 52.2315 130.911 51.6684 126.838 51.6684L121.125 51.6315Z" fill="#19E58F"/>
<path d="M165.472 66.0687C154.603 66.0687 147.132 60.0314 147.132 49.1384C147.132 38.2454 154.603 32.1527 165.472 32.1527C176.342 32.1527 183.868 38.2362 183.868 49.1753C183.868 60.1145 176.323 66.0687 165.472 66.0687ZM165.472 39.187C160.038 39.187 156.112 42.5841 156.112 49.1384C156.112 55.6926 160.038 58.9975 165.472 58.9975C170.907 58.9975 174.888 55.5542 174.888 49.1384C174.888 42.7226 170.916 39.187 165.472 39.187Z" fill="#19E58F"/>
<path d="M212.051 47.9568C212.051 41.1256 208.347 39.7132 204.912 39.7132C201.478 39.7132 197.774 41.1256 197.774 47.9568V61.8039C197.774 64.5733 196.163 65.5795 193.756 65.5795C191.349 65.5795 189.729 64.5363 189.729 61.8039V47.9568C189.729 37.7193 195.127 32.1158 204.912 32.1158C214.698 32.1158 220.087 37.7193 220.087 47.9568V61.8039C220.087 64.5733 218.485 65.5795 216.069 65.5795C213.652 65.5795 212.051 64.5363 212.051 61.8039V47.9568Z" fill="#19E58F"/>
<path d="M226.993 37.2576C226.993 32.7343 236.687 32.4481 240.372 32.4481C246.806 32.4481 254.138 33.3712 254.138 41.4118C254.138 44.5227 252.953 46.9506 249.833 48.1045C253.537 48.8061 255.388 50.8739 255.388 55.1295C255.388 64.8871 246.075 65.7364 240.075 65.7364C237.992 65.7364 227.021 65.7364 227.021 61.3053L226.993 37.2576ZM240.751 45.0766C244.964 45.0766 246.093 44.0888 246.093 42.1503C246.093 40.5071 245.241 39.0393 240.705 39.0393C238.805 39.0278 236.907 39.1698 235.03 39.4639V45.0766H240.751ZM235.03 51.6309V58.7021C236.826 59.0205 238.649 59.1628 240.473 59.1267C245.102 59.1267 247.232 58.4621 247.232 55.4342C247.232 52.2309 244.815 51.6678 240.751 51.6678L235.03 51.6309Z" fill="#19E58F"/>
<path d="M279.386 66.0687C268.507 66.0687 261.036 60.0314 261.036 49.1384C261.036 38.2454 268.507 32.1527 279.386 32.1527C290.264 32.1527 297.782 38.2362 297.782 49.1753C297.782 60.1145 290.264 66.0687 279.386 66.0687ZM279.386 39.187C273.951 39.187 270.026 42.5841 270.026 49.1384C270.026 55.6926 273.951 58.9975 279.386 58.9975C284.82 58.9975 288.792 55.5542 288.792 49.1384C288.792 42.7226 284.82 39.187 279.386 39.187Z" fill="#19E58F"/>
<path d="M325.964 47.9568C325.964 41.1256 322.261 39.7132 318.826 39.7132C315.391 39.7132 311.678 41.1256 311.678 47.9568V61.8039C311.678 64.5733 310.077 65.5795 307.66 65.5795C305.244 65.5795 303.642 64.5363 303.642 61.8039V47.9568C303.642 37.7193 309.031 32.1158 318.826 32.1158C328.621 32.1158 334 37.7193 334 47.9568V61.8039C334 64.5733 332.389 65.5795 329.982 65.5795C327.575 65.5795 325.964 64.5363 325.964 61.8039V47.9568Z" fill="#19E58F"/>
</g>
<defs>
<clipPath id="clip0_49:92">
<rect width="334" height="98" fill="white"/>
</clipPath>
</defs>
</svg>
