<svg width="48" height="48" viewBox="0 0 48 48" fill="none" xmlns="http://www.w3.org/2000/svg">
<path fill-rule="evenodd" clip-rule="evenodd" d="M0 23.9996C0 10.7446 10.7454 0 23.9996 0C37.2546 0 48 10.7478 48 23.9996C48 37.2538 37.2546 47.9992 23.9996 47.9992C10.7454 47.9992 0 37.2538 0 23.9996ZM31.3979 35.5568C34.1751 34.7194 36.7872 33.4098 39.1198 31.6856V31.6888C39.7508 25.1206 38.0378 19.428 34.5864 14.3776C32.5819 13.4604 30.4659 12.8095 28.2923 12.4416C27.9951 12.9734 27.726 13.5205 27.486 14.0804C25.1714 13.7315 22.8175 13.7315 20.5028 14.0804C20.2634 13.5203 19.9946 12.9733 19.6973 12.4416C17.5241 12.8132 15.4083 13.4656 13.4032 14.3824C9.42121 20.2741 8.34166 26.0193 8.88183 31.6832C11.2139 33.406 13.824 34.7161 16.5989 35.5568C17.2235 34.7164 17.7762 33.8249 18.2513 32.8918C17.3489 32.5545 16.4779 32.1386 15.6484 31.6489C15.8659 31.4896 16.0794 31.3302 16.2858 31.1709C18.6992 32.3058 21.3334 32.8942 24.0004 32.8942C26.6674 32.8942 29.3016 32.3058 31.715 31.1709C31.923 31.3398 32.1365 31.5031 32.3524 31.6489C31.5214 32.1397 30.6488 32.5564 29.7447 32.8942C30.2194 33.827 30.7725 34.7177 31.3979 35.5568ZM18.9285 22.1028C17.3861 22.1028 16.187 23.4795 16.187 25.159C16.187 26.8385 17.4299 28.2033 18.9333 28.2033C20.4662 28.2033 21.6517 26.8385 21.678 25.159C21.7043 23.4795 20.4702 22.1028 18.9285 22.1028ZM29.0659 22.1028C27.5211 22.1028 26.322 23.4795 26.322 25.159C26.322 26.8385 27.5609 28.204 29.0659 28.204C30.5988 28.204 31.782 26.8393 31.8083 25.1598C31.8345 23.4803 30.6108 22.1028 29.0659 22.1028Z" fill="#222222"/>
</svg>
