<svg width="181" height="92" viewBox="0 0 181 92" fill="none" xmlns="http://www.w3.org/2000/svg">
<g clip-path="url(#clip0)">
<path d="M52.56 15.26C52.56 12.89 51.17 11.35 49.14 11.35C47.11 11.35 45.72 12.89 45.72 15.26V34.94C45.72 43.04 40.14 48.2 32.67 48.2C25.2 48.2 19.62 43.04 19.62 34.94V15.26C19.62 12.89 18.22 11.35 16.2 11.35C14.18 11.35 12.78 12.89 12.78 15.26V43.26C12.7774 44.5349 12.2698 45.7568 11.3683 46.6583C10.4668 47.5597 9.24491 48.0673 7.97003 48.07C6.69342 48.07 5.46895 47.5635 4.56531 46.6618C3.66167 45.76 3.15267 44.5366 3.15002 43.26V15.26C3.15002 7.15998 8.73001 2 16.2 2C23.67 2 29.25 7.15998 29.25 15.26V34.94C29.25 37.31 30.65 38.85 32.67 38.85C34.69 38.85 36.09 37.31 36.09 34.94V15.26C36.09 7.15998 41.67 2 49.09 2C56.51 2 62.14 7.15998 62.14 15.26V43.26C62.1374 44.5349 61.6298 45.7568 60.7283 46.6583C59.8268 47.5597 58.6049 48.0673 57.33 48.07C56.0542 48.0673 54.8313 47.5601 53.9282 46.6589C53.0251 45.7577 52.5153 44.5358 52.51 43.26L52.56 15.26Z" fill="#222222"/>
<path d="M72.74 47.29C71.724 47.2822 70.7519 46.8751 70.0334 46.1566C69.315 45.4382 68.9079 44.466 68.9 43.45V6.74002C68.9079 5.72495 69.3153 4.75384 70.034 4.03699C70.7527 3.32014 71.7249 2.91526 72.74 2.91003H95.74C96.9568 2.92048 98.1208 3.40848 98.9812 4.26889C99.8416 5.1293 100.33 6.29325 100.34 7.51001C100.33 8.72771 99.842 9.89275 98.9818 10.7548C98.1217 11.6168 96.9577 12.107 95.74 12.12H78.57V20.46H93.85C95.0687 20.473 96.2337 20.9629 97.0954 21.8246C97.9571 22.6864 98.447 23.8514 98.46 25.07C98.447 26.2886 97.9571 27.4537 97.0954 28.3154C96.2337 29.1771 95.0687 29.667 93.85 29.68H78.57V38.05H95.74C96.9585 38.0605 98.124 38.5499 98.9846 39.4124C99.8453 40.275 100.332 41.4415 100.34 42.66C100.33 43.8768 99.8416 45.0407 98.9812 45.9012C98.1208 46.7616 96.9568 47.2496 95.74 47.26L72.74 47.29Z" fill="#222222"/>
<path d="M117.89 12.12H107.42C106.202 12.107 105.038 11.6168 104.178 10.7548C103.318 9.89275 102.83 8.72771 102.82 7.51001C102.831 6.29325 103.319 5.1293 104.179 4.26889C105.039 3.40848 106.203 2.92048 107.42 2.91003H137.99C139.208 2.92044 140.373 3.40811 141.235 4.26825C142.097 5.12839 142.587 6.29233 142.6 7.51001C142.587 8.72862 142.097 9.89366 141.235 10.7554C140.374 11.6171 139.209 12.107 137.99 12.12H127.52V43.25C127.517 44.5249 127.01 45.7468 126.108 46.6483C125.207 47.5498 123.985 48.0574 122.71 48.06C121.434 48.0574 120.211 47.5501 119.308 46.6489C118.405 45.7477 117.895 44.5258 117.89 43.25V12.12Z" fill="#222222"/>
<path d="M170.66 33.4H159.91C158.692 33.3896 157.527 32.902 156.665 32.0418C155.803 31.1817 155.313 30.0177 155.3 28.8C155.313 27.5814 155.803 26.4164 156.665 25.5546C157.526 24.6929 158.691 24.2031 159.91 24.19H170.66V20.19C170.66 14.75 167.03 11.19 162 11.19C156.97 11.19 153.35 14.75 153.35 20.19V43.19C153.347 44.4667 152.838 45.6901 151.935 46.5918C151.031 47.4936 149.807 48 148.53 48C147.255 47.9974 146.033 47.4898 145.132 46.5883C144.23 45.6868 143.723 44.4649 143.72 43.19V20.19C143.676 17.7807 144.12 15.3874 145.024 13.1537C145.928 10.92 147.274 8.89198 148.981 7.19133C150.688 5.49067 152.722 4.15245 154.959 3.25694C157.196 2.36143 159.591 1.9271 162 1.98002C164.41 1.92714 166.805 2.36142 169.043 3.25682C171.28 4.15221 173.314 5.4903 175.022 7.19081C176.73 8.89132 178.077 10.9192 178.982 13.153C179.888 15.3867 180.332 17.7802 180.29 20.19V43.19C180.287 44.4667 179.778 45.6901 178.875 46.5918C177.971 47.4936 176.747 48 175.47 48C174.195 47.9974 172.973 47.4898 172.072 46.5883C171.17 45.6868 170.663 44.4649 170.66 43.19V33.4Z" fill="#222222"/>
<path d="M7.26999 90.89C6.2707 90.8796 5.31529 90.478 4.60864 89.7714C3.902 89.0647 3.5004 88.1093 3.48999 87.11C3.5004 86.1107 3.902 85.1553 4.60864 84.4487C5.31529 83.742 6.2707 83.3404 7.26999 83.33H20.44C20.9107 83.3616 21.3829 83.296 21.8271 83.1373C22.2714 82.9786 22.6783 82.7302 23.0225 82.4075C23.3667 82.0849 23.6409 81.6949 23.828 81.2618C24.0151 80.8287 24.111 80.3618 24.11 79.89C24.1157 79.4173 24.0227 78.9487 23.8371 78.514C23.6514 78.0793 23.3772 77.688 23.0318 77.3653C22.6864 77.0425 22.2776 76.7953 21.8313 76.6394C21.3851 76.4835 20.9112 76.4224 20.44 76.46H13.44C6.62 76.46 1.97998 71.59 1.97998 65.52C1.97998 59.45 6.63999 54.46 13.46 54.46H26.74C27.7401 54.4679 28.697 54.8686 29.4042 55.5758C30.1114 56.283 30.5121 57.2399 30.52 58.24C30.5121 59.2401 30.1114 60.197 29.4042 60.9042C28.697 61.6114 27.7401 62.0122 26.74 62.02H13.57C13.1006 61.9885 12.6297 62.0538 12.1866 62.212C11.7436 62.3702 11.3378 62.6179 10.9945 62.9396C10.6513 63.2613 10.3778 63.6501 10.1913 64.082C10.0047 64.5139 9.90894 64.9796 9.91 65.45C9.90306 65.9226 9.99472 66.3915 10.1791 66.8267C10.3636 67.2618 10.6367 67.6538 10.9811 67.9775C11.3255 68.3012 11.7336 68.5495 12.1794 68.7066C12.6251 68.8638 13.0988 68.9262 13.57 68.89H20.57C27.38 68.89 32.02 73.76 32.02 79.83C32.02 85.9 27.38 90.88 20.57 90.88L7.26999 90.89Z" fill="#222222"/>
<path d="M58.36 79.46H49.54C48.54 79.4522 47.583 79.0514 46.8758 78.3442C46.1686 77.637 45.7679 76.6801 45.7601 75.68C45.7705 74.6807 46.172 73.7253 46.8787 73.0187C47.5853 72.312 48.5408 71.9104 49.54 71.9H58.36V68.64C58.36 64.17 55.3601 61.25 51.2601 61.25C47.1601 61.25 44.15 64.17 44.15 68.64V87.54C44.1371 88.5836 43.7167 89.5808 42.9788 90.3188C42.2408 91.0567 41.2436 91.4771 40.2 91.49C39.1564 91.4771 38.1593 91.0567 37.4213 90.3188C36.6833 89.5808 36.263 88.5836 36.25 87.54V68.64C36.2146 66.6628 36.5787 64.6987 37.3206 62.8656C38.0625 61.0324 39.167 59.368 40.5676 57.972C41.9683 56.576 43.6365 55.4771 45.4721 54.7413C47.3077 54.0055 49.2729 53.648 51.25 53.69C53.2272 53.648 55.1924 54.0055 57.028 54.7413C58.8636 55.4771 60.5318 56.576 61.9324 57.972C63.3331 59.368 64.4375 61.0324 65.1794 62.8656C65.9213 64.6987 66.2855 66.6628 66.25 68.64V87.54C66.2371 88.5836 65.8168 89.5808 65.0788 90.3188C64.3408 91.0567 63.3436 91.4771 62.3 91.49C61.2565 91.4771 60.2593 91.0567 59.5213 90.3188C58.7833 89.5808 58.363 88.5836 58.35 87.54L58.36 79.46Z" fill="#222222"/>
<path d="M79.55 77.83V87.57C79.537 88.6136 79.1167 89.6108 78.3787 90.3488C77.6407 91.0867 76.6436 91.5071 75.6 91.52C74.5477 91.5201 73.5378 91.1055 72.7891 90.3662C72.0403 89.6268 71.6131 88.6222 71.6 87.57V57.62C71.6052 56.7879 71.9374 55.9912 72.5248 55.4019C73.1123 54.8126 73.9079 54.4779 74.74 54.47H93.24C94.2393 54.4804 95.1947 54.882 95.9013 55.5887C96.608 56.2953 97.0095 57.2507 97.02 58.25C97.0095 59.2493 96.608 60.2047 95.9013 60.9114C95.1947 61.618 94.2393 62.0196 93.24 62.03H79.5V70.27H91.7C92.6992 70.2804 93.6547 70.682 94.3613 71.3887C95.068 72.0953 95.4695 73.0507 95.4799 74.05C95.4695 75.0493 95.068 76.0047 94.3613 76.7114C93.6547 77.418 92.6992 77.8196 91.7 77.83H79.55Z" fill="#222222"/>
<path d="M122.5 79.4601H113.68C112.68 79.4522 111.723 79.0514 111.016 78.3442C110.309 77.637 109.908 76.6802 109.9 75.6801C109.91 74.6808 110.312 73.7254 111.019 73.0187C111.725 72.3121 112.681 71.9105 113.68 71.9001H122.5V68.64C122.5 64.17 119.5 61.2501 115.4 61.2501C111.3 61.2501 108.3 64.17 108.3 68.64V87.54C108.287 88.5836 107.867 89.5808 107.129 90.3188C106.391 91.0568 105.394 91.4771 104.35 91.4901C103.298 91.4901 102.288 91.0756 101.539 90.3362C100.79 89.5969 100.363 88.5922 100.35 87.54V68.64C100.313 66.6624 100.676 64.6977 101.418 62.864C102.159 61.0302 103.263 59.3652 104.664 57.9689C106.065 56.5726 107.734 55.4738 109.57 54.7385C111.407 54.0032 113.372 53.6466 115.35 53.6901C117.327 53.6466 119.293 54.0032 121.13 54.7385C122.966 55.4738 124.635 56.5726 126.035 57.9689C127.436 59.3652 128.541 61.0302 129.282 62.864C130.024 64.6977 130.387 66.6624 130.35 68.64V87.54C130.337 88.5836 129.917 89.5808 129.179 90.3188C128.441 91.0568 127.444 91.4771 126.4 91.4901C125.356 91.4771 124.359 91.0568 123.621 90.3188C122.883 89.5808 122.463 88.5836 122.45 87.54L122.5 79.4601Z" fill="#222222"/>
<path d="M147.7 76.52C147.145 75.8394 146.841 74.9883 146.84 74.11C146.845 73.186 147.215 72.3014 147.868 71.648C148.521 70.9946 149.406 70.6253 150.33 70.62H154.57C155.145 70.6375 155.717 70.539 156.253 70.3305C156.788 70.122 157.276 69.8077 157.688 69.4064C158.1 69.0051 158.426 68.525 158.648 67.9947C158.87 67.4644 158.983 66.8949 158.98 66.32C158.982 65.746 158.868 65.1775 158.645 64.6484C158.423 64.1193 158.096 63.6404 157.684 63.2402C157.273 62.8399 156.785 62.5265 156.25 62.3186C155.715 62.1107 155.144 62.0126 154.57 62.03H143.69V87.57C143.677 88.6136 143.257 89.6108 142.519 90.3488C141.781 91.0867 140.784 91.5071 139.74 91.52C138.696 91.5071 137.699 91.0867 136.961 90.3488C136.223 89.6108 135.803 88.6136 135.79 87.57V57.62C135.798 56.787 136.132 55.9903 136.721 55.4013C137.31 54.8122 138.107 54.4779 138.94 54.47H155.43C156.945 54.4792 158.444 54.7872 159.84 55.3765C161.236 55.9658 162.503 56.8248 163.566 57.9042C164.63 58.9836 165.47 60.2623 166.039 61.6669C166.607 63.0716 166.893 64.5747 166.88 66.09C166.887 68.5669 166.102 70.9812 164.639 72.98C163.177 74.9789 161.113 76.4576 158.75 77.2L165.85 84.93C166.205 85.3093 166.48 85.7561 166.659 86.244C166.837 86.7318 166.916 87.2506 166.89 87.7694C166.864 88.2883 166.733 88.7966 166.507 89.264C166.28 89.7314 165.961 90.1483 165.57 90.49C164.787 91.1734 163.769 91.5252 162.731 91.4711C161.694 91.417 160.718 90.9611 160.01 90.2L147.7 76.52Z" fill="#222222"/>
<path d="M171.64 57.79C171.653 56.7464 172.073 55.7493 172.811 55.0113C173.549 54.2733 174.546 53.853 175.59 53.84C176.634 53.853 177.631 54.2733 178.369 55.0113C179.107 55.7493 179.527 56.7464 179.54 57.79V87.57C179.527 88.6136 179.107 89.6108 178.369 90.3488C177.631 91.0867 176.634 91.5071 175.59 91.52C174.546 91.5071 173.549 91.0867 172.811 90.3488C172.073 89.6108 171.653 88.6136 171.64 87.57V57.79Z" fill="#222222"/>
<path d="M50.56 13.26C50.56 10.89 49.17 9.35001 47.14 9.35001C45.11 9.35001 43.72 10.89 43.72 13.26V32.94C43.72 41.04 38.14 46.2 30.67 46.2C23.2 46.2 17.62 41.04 17.62 32.94V13.26C17.62 10.89 16.22 9.35001 14.2 9.35001C12.18 9.35001 10.78 10.89 10.78 13.26V41.26C10.7774 42.5349 10.2698 43.7568 9.36829 44.6583C8.46681 45.5597 7.24491 46.0673 5.97003 46.07C4.69342 46.07 3.46895 45.5635 2.56531 44.6618C1.66167 43.76 1.15267 42.5366 1.15002 41.26V13.26C1.15002 5.15998 6.73001 0 14.2 0C21.67 0 27.25 5.15998 27.25 13.26V32.94C27.25 35.31 28.65 36.85 30.67 36.85C32.69 36.85 34.09 35.31 34.09 32.94V13.26C34.09 5.15998 39.67 0 47.09 0C54.51 0 60.14 5.15998 60.14 13.26V41.26C60.1374 42.5349 59.6298 43.7568 58.7283 44.6583C57.8268 45.5597 56.6049 46.0673 55.33 46.07C54.0542 46.0673 52.8313 45.5601 51.9282 44.6589C51.0251 43.7577 50.5153 42.5358 50.51 41.26L50.56 13.26Z" fill="#53E5B5"/>
<path d="M70.74 45.29C69.724 45.2822 68.7519 44.8751 68.0334 44.1566C67.315 43.4382 66.9079 42.466 66.9 41.45V4.74002C66.9079 3.72495 67.3153 2.75384 68.034 2.03699C68.7527 1.32014 69.7249 0.915263 70.74 0.910034H93.74C94.9568 0.920479 96.1208 1.40848 96.9812 2.26889C97.8416 3.1293 98.3296 4.29325 98.34 5.51001C98.3296 6.72771 97.842 7.89275 96.9818 8.75476C96.1217 9.61677 94.9577 10.107 93.74 10.12H76.57V18.46H91.85C93.0687 18.473 94.2337 18.9629 95.0954 19.8246C95.9571 20.6864 96.447 21.8514 96.46 23.07C96.447 24.2886 95.9571 25.4537 95.0954 26.3154C94.2337 27.1771 93.0687 27.667 91.85 27.68H76.57V36.05H93.74C94.9585 36.0605 96.124 36.5499 96.9846 37.4124C97.8453 38.275 98.3322 39.4415 98.34 40.66C98.3296 41.8768 97.8416 43.0407 96.9812 43.9012C96.1208 44.7616 94.9568 45.2496 93.74 45.26L70.74 45.29Z" fill="#53E5B5"/>
<path d="M115.89 10.12H105.42C104.202 10.107 103.038 9.61677 102.178 8.75476C101.318 7.89275 100.83 6.72771 100.82 5.51001C100.831 4.29325 101.319 3.1293 102.179 2.26889C103.039 1.40848 104.203 0.920479 105.42 0.910034H135.99C137.208 0.920439 138.373 1.40811 139.235 2.26825C140.097 3.12839 140.587 4.29233 140.6 5.51001C140.587 6.72862 140.097 7.89366 139.235 8.7554C138.374 9.61714 137.209 10.107 135.99 10.12H125.52V41.25C125.517 42.5249 125.01 43.7468 124.108 44.6483C123.207 45.5498 121.985 46.0574 120.71 46.06C119.434 46.0574 118.211 45.5501 117.308 44.6489C116.405 43.7477 115.895 42.5258 115.89 41.25V10.12Z" fill="#53E5B5"/>
<path d="M168.66 31.4H157.91C156.692 31.3896 155.527 30.902 154.665 30.0418C153.803 29.1817 153.313 28.0177 153.3 26.8C153.313 25.5814 153.803 24.4164 154.665 23.5546C155.526 22.6929 156.691 22.2031 157.91 22.19H168.66V18.19C168.66 12.75 165.03 9.19005 160 9.19005C154.97 9.19005 151.35 12.75 151.35 18.19V41.19C151.347 42.4667 150.838 43.6901 149.935 44.5918C149.031 45.4936 147.807 46 146.53 46C145.255 45.9974 144.033 45.4898 143.132 44.5883C142.23 43.6868 141.723 42.4649 141.72 41.19V18.19C141.676 15.7807 142.12 13.3874 143.024 11.1537C143.928 8.92001 145.274 6.89198 146.981 5.19133C148.688 3.49067 150.722 2.15245 152.959 1.25694C155.196 0.361433 157.591 -0.0729036 160 -0.019976C162.41 -0.0728597 164.805 0.361423 167.043 1.25682C169.28 2.15221 171.314 3.4903 173.022 5.19081C174.73 6.89132 176.077 8.91924 176.982 11.153C177.888 13.3867 178.332 15.7802 178.29 18.19V41.19C178.287 42.4667 177.778 43.6901 176.875 44.5918C175.971 45.4936 174.747 46 173.47 46C172.195 45.9974 170.973 45.4898 170.072 44.5883C169.17 43.6868 168.663 42.4649 168.66 41.19V31.4Z" fill="#53E5B5"/>
<path d="M5.26999 88.89C4.2707 88.8796 3.31529 88.478 2.60864 87.7714C1.902 87.0647 1.5004 86.1093 1.48999 85.11C1.5004 84.1107 1.902 83.1553 2.60864 82.4487C3.31529 81.742 4.2707 81.3404 5.26999 81.33H18.44C18.9107 81.3616 19.3829 81.296 19.8271 81.1373C20.2714 80.9786 20.6783 80.7302 21.0225 80.4075C21.3667 80.0849 21.6409 79.6949 21.828 79.2618C22.0151 78.8287 22.111 78.3618 22.11 77.89C22.1157 77.4173 22.0227 76.9487 21.8371 76.514C21.6514 76.0793 21.3772 75.688 21.0318 75.3653C20.6864 75.0425 20.2776 74.7953 19.8313 74.6394C19.3851 74.4835 18.9112 74.4224 18.44 74.46H11.44C4.62 74.46 -0.0200195 69.59 -0.0200195 63.52C-0.0200195 57.45 4.63999 52.46 11.46 52.46H24.74C25.7401 52.4679 26.697 52.8686 27.4042 53.5758C28.1114 54.283 28.5121 55.2399 28.52 56.24C28.5121 57.2401 28.1114 58.197 27.4042 58.9042C26.697 59.6114 25.7401 60.0122 24.74 60.02H11.57C11.1006 59.9885 10.6297 60.0538 10.1866 60.212C9.74358 60.3702 9.33781 60.6179 8.99454 60.9396C8.65126 61.2613 8.37783 61.6501 8.19125 62.082C8.00468 62.5139 7.90894 62.9796 7.91 63.45C7.90306 63.9226 7.99472 64.3915 8.17914 64.8267C8.36356 65.2618 8.63668 65.6538 8.98108 65.9775C9.32548 66.3012 9.73359 66.5495 10.1794 66.7066C10.6251 66.8638 11.0988 66.9262 11.57 66.89H18.57C25.38 66.89 30.02 71.76 30.02 77.83C30.02 83.9 25.38 88.88 18.57 88.88L5.26999 88.89Z" fill="#53E5B5"/>
<path d="M56.36 77.46H47.54C46.54 77.4522 45.583 77.0514 44.8758 76.3442C44.1686 75.637 43.7679 74.6801 43.7601 73.68C43.7705 72.6807 44.172 71.7253 44.8787 71.0187C45.5853 70.312 46.5408 69.9104 47.54 69.9H56.36V66.64C56.36 62.17 53.3601 59.25 49.2601 59.25C45.1601 59.25 42.15 62.17 42.15 66.64V85.54C42.1371 86.5836 41.7167 87.5808 40.9788 88.3188C40.2408 89.0567 39.2436 89.4771 38.2 89.49C37.1564 89.4771 36.1593 89.0567 35.4213 88.3188C34.6833 87.5808 34.263 86.5836 34.25 85.54V66.64C34.2146 64.6628 34.5787 62.6987 35.3206 60.8656C36.0625 59.0324 37.167 57.368 38.5676 55.972C39.9683 54.576 41.6365 53.4771 43.4721 52.7413C45.3077 52.0055 47.2729 51.648 49.25 51.69C51.2272 51.648 53.1924 52.0055 55.028 52.7413C56.8636 53.4771 58.5318 54.576 59.9324 55.972C61.3331 57.368 62.4375 59.0324 63.1794 60.8656C63.9213 62.6987 64.2855 64.6628 64.25 66.64V85.54C64.2371 86.5836 63.8168 87.5808 63.0788 88.3188C62.3408 89.0567 61.3436 89.4771 60.3 89.49C59.2565 89.4771 58.2593 89.0567 57.5213 88.3188C56.7833 87.5808 56.363 86.5836 56.35 85.54L56.36 77.46Z" fill="#53E5B5"/>
<path d="M77.55 75.83V85.57C77.537 86.6136 77.1167 87.6108 76.3787 88.3488C75.6407 89.0867 74.6436 89.5071 73.6 89.52C72.5477 89.5201 71.5378 89.1055 70.7891 88.3662C70.0403 87.6268 69.6131 86.6222 69.6 85.57V55.62C69.6052 54.7879 69.9374 53.9912 70.5248 53.4019C71.1123 52.8126 71.9079 52.4779 72.74 52.47H91.24C92.2393 52.4804 93.1947 52.882 93.9013 53.5887C94.608 54.2953 95.0095 55.2507 95.02 56.25C95.0095 57.2493 94.608 58.2047 93.9013 58.9114C93.1947 59.618 92.2393 60.0196 91.24 60.03H77.5V68.27H89.7C90.6992 68.2804 91.6547 68.682 92.3613 69.3887C93.068 70.0953 93.4695 71.0507 93.4799 72.05C93.4695 73.0493 93.068 74.0047 92.3613 74.7114C91.6547 75.418 90.6992 75.8196 89.7 75.83H77.55Z" fill="#53E5B5"/>
<path d="M120.5 77.4601H111.68C110.68 77.4522 109.723 77.0514 109.016 76.3442C108.309 75.637 107.908 74.6802 107.9 73.6801C107.91 72.6808 108.312 71.7254 109.019 71.0187C109.725 70.3121 110.681 69.9105 111.68 69.9001H120.5V66.64C120.5 62.17 117.5 59.2501 113.4 59.2501C109.3 59.2501 106.3 62.17 106.3 66.64V85.54C106.287 86.5836 105.867 87.5808 105.129 88.3188C104.391 89.0568 103.394 89.4771 102.35 89.4901C101.298 89.4901 100.288 89.0756 99.539 88.3362C98.7903 87.5969 98.3631 86.5922 98.35 85.54V66.64C98.3131 64.6624 98.6763 62.6977 99.4177 60.864C100.159 59.0302 101.263 57.3652 102.664 55.9689C104.065 54.5726 105.734 53.4738 107.57 52.7385C109.407 52.0032 111.372 51.6466 113.35 51.6901C115.327 51.6466 117.293 52.0032 119.13 52.7385C120.966 53.4738 122.635 54.5726 124.035 55.9689C125.436 57.3652 126.541 59.0302 127.282 60.864C128.024 62.6977 128.387 64.6624 128.35 66.64V85.54C128.337 86.5836 127.917 87.5808 127.179 88.3188C126.441 89.0568 125.444 89.4771 124.4 89.4901C123.356 89.4771 122.359 89.0568 121.621 88.3188C120.883 87.5808 120.463 86.5836 120.45 85.54L120.5 77.4601Z" fill="#53E5B5"/>
<path d="M145.7 74.52C145.145 73.8394 144.841 72.9883 144.84 72.11C144.845 71.186 145.215 70.3014 145.868 69.648C146.521 68.9946 147.406 68.6253 148.33 68.62H152.57C153.145 68.6375 153.717 68.539 154.253 68.3305C154.788 68.122 155.276 67.8077 155.688 67.4064C156.1 67.0051 156.426 66.525 156.648 65.9947C156.87 65.4644 156.983 64.8949 156.98 64.32C156.982 63.746 156.868 63.1775 156.645 62.6484C156.423 62.1193 156.096 61.6404 155.684 61.2402C155.273 60.8399 154.785 60.5265 154.25 60.3186C153.715 60.1107 153.144 60.0126 152.57 60.03H141.69V85.57C141.677 86.6136 141.257 87.6108 140.519 88.3488C139.781 89.0867 138.784 89.5071 137.74 89.52C136.696 89.5071 135.699 89.0867 134.961 88.3488C134.223 87.6108 133.803 86.6136 133.79 85.57V55.62C133.798 54.787 134.132 53.9903 134.721 53.4013C135.31 52.8122 136.107 52.4779 136.94 52.47H153.43C154.945 52.4792 156.444 52.7872 157.84 53.3765C159.236 53.9658 160.503 54.8248 161.566 55.9042C162.63 56.9836 163.47 58.2623 164.039 59.6669C164.607 61.0716 164.893 62.5747 164.88 64.09C164.887 66.5669 164.102 68.9812 162.639 70.98C161.177 72.9789 159.113 74.4576 156.75 75.2L163.85 82.93C164.205 83.3093 164.48 83.7561 164.659 84.244C164.837 84.7318 164.916 85.2506 164.89 85.7694C164.864 86.2883 164.733 86.7966 164.507 87.264C164.28 87.7314 163.961 88.1483 163.57 88.49C162.787 89.1734 161.769 89.5252 160.731 89.4711C159.694 89.417 158.718 88.9611 158.01 88.2L145.7 74.52Z" fill="#53E5B5"/>
<path d="M169.64 55.79C169.653 54.7464 170.073 53.7493 170.811 53.0113C171.549 52.2733 172.546 51.853 173.59 51.84C174.634 51.853 175.631 52.2733 176.369 53.0113C177.107 53.7493 177.527 54.7464 177.54 55.79V85.57C177.527 86.6136 177.107 87.6108 176.369 88.3488C175.631 89.0867 174.634 89.5071 173.59 89.52C172.546 89.5071 171.549 89.0867 170.811 88.3488C170.073 87.6108 169.653 86.6136 169.64 85.57V55.79Z" fill="#53E5B5"/>
</g>
<defs>
<clipPath id="clip0">
<rect width="180.28" height="91.52" fill="white"/>
</clipPath>
</defs>
</svg>
