<svg width="48" height="48" viewBox="0 0 48 48" fill="none" xmlns="http://www.w3.org/2000/svg">
<path d="M47.999 24.2161C47.949 29.7591 45.9819 35.114 42.4316 39.3711C38.8814 43.6283 33.9669 46.5252 28.523 47.5699C23.0791 48.6146 17.4414 47.7426 12.5674 45.102C7.69351 42.4614 3.88391 38.2151 1.78571 33.0843C-0.31249 27.9535 -0.56992 22.2546 1.05715 16.9555C2.68421 11.6564 6.09545 7.08391 10.7114 4.01467C15.3274 0.945429 20.8636 -0.431311 26.3795 0.118293C31.8955 0.667897 37.0511 3.10996 40.9707 7.02968C45.4935 11.604 48.0206 17.7834 47.999 24.2161ZM20.7222 19.3573C21.653 18.6488 22.7843 18.2532 23.9538 18.2274C25.1291 18.2404 26.2679 18.6372 27.1967 19.3573H35.8069V17.7076C35.8039 16.9148 35.6445 16.1304 35.3377 15.3993C35.0308 14.6683 34.5827 14.005 34.019 13.4476C33.4552 12.8901 32.7869 12.4495 32.0525 12.1509C31.3181 11.8523 30.5319 11.7017 29.7391 11.7076H17.8973C16.3169 11.7225 14.8064 12.3616 13.6952 13.4855C12.5839 14.6095 11.9621 16.1271 11.9651 17.7076V19.3573H20.7222ZM29.1967 21.4929C29.4961 22.2863 29.6343 23.1314 29.6035 23.9788C29.6035 25.4772 29.0083 26.9142 27.9487 27.9738C26.8892 29.0333 25.4522 29.6285 23.9538 29.6285C22.4554 29.6285 21.0184 29.0333 19.9588 27.9738C18.8993 26.9142 18.3041 25.4772 18.3041 23.9788C18.3497 23.1252 18.5368 22.2852 18.8578 21.4929H11.9651V29.7641C11.9799 31.3318 12.61 32.8309 13.7196 33.9385C14.8293 35.046 16.3296 35.6732 17.8973 35.685H29.886C31.4626 35.6851 32.9757 35.0635 34.0968 33.955C35.218 32.8465 35.8568 31.3406 35.8747 29.7641V21.4929H29.1967ZM24.0216 21.5607C23.392 21.5936 22.7971 21.8593 22.3524 22.3061C21.9076 22.7529 21.6448 23.3491 21.6148 23.9788C21.6413 24.5952 21.9079 25.1768 22.3577 25.5992C22.8075 26.0215 23.4047 26.2511 24.0216 26.2387C24.3134 26.2456 24.6036 26.1942 24.8752 26.0875C25.1469 25.9808 25.3945 25.8209 25.6035 25.6172C25.8358 25.4079 26.0236 25.154 26.1556 24.8706C26.2876 24.5871 26.3612 24.28 26.3719 23.9675C26.353 23.3448 26.1009 22.7519 25.6657 22.3062C25.2304 21.8605 24.6437 21.5944 24.0216 21.5607ZM29.5357 18.0466C29.4524 18.0535 29.3685 18.0421 29.29 18.0133C29.2115 17.9844 29.1402 17.9389 29.0811 17.8798C29.022 17.8206 28.9764 17.7493 28.9476 17.6708C28.9188 17.5923 28.9074 17.5085 28.9142 17.4251V15.3573C28.9142 15.1925 28.9797 15.0345 29.0963 14.9179C29.2128 14.8014 29.3709 14.7359 29.5357 14.7359H31.6035C31.7563 14.7527 31.8975 14.8255 31.9997 14.9402C32.102 15.055 32.1581 15.2036 32.1572 15.3573V17.4364C32.165 17.5143 32.1566 17.5929 32.1324 17.6674C32.1083 17.7418 32.0689 17.8104 32.0169 17.8688C31.9648 17.9273 31.9012 17.9742 31.83 18.0068C31.7589 18.0393 31.6817 18.0567 31.6035 18.0579L29.5357 18.0466Z" fill="black"/>
</svg>
