<svg width="22" height="22" viewBox="0 0 22 22" fill="none" xmlns="http://www.w3.org/2000/svg">
<path d="M18.04 8.80002C17.9233 8.80002 17.8114 8.84638 17.7289 8.92889C17.6464 9.01141 17.6 9.12332 17.6 9.24002V21.12H0.88V4.40002H12.76C12.8767 4.40002 12.9886 4.35366 13.0711 4.27115C13.1536 4.18863 13.2 4.07671 13.2 3.96002C13.2 3.84332 13.1536 3.73141 13.0711 3.64889C12.9886 3.56638 12.8767 3.52002 12.76 3.52002H0.44C0.323305 3.52002 0.211389 3.56638 0.128873 3.64889C0.0463571 3.73141 0 3.84332 0 3.96002V21.56C0 21.6767 0.0463571 21.7886 0.128873 21.8711C0.211389 21.9537 0.323305 22 0.44 22H18.04C18.1567 22 18.2686 21.9537 18.3511 21.8711C18.4336 21.7886 18.48 21.6767 18.48 21.56V9.24002C18.48 9.12332 18.4336 9.01141 18.3511 8.92889C18.2686 8.84638 18.1567 8.80002 18.04 8.80002Z" fill="#53E5B5"/>
<path d="M21.56 0H16.28C16.1633 0 16.0514 0.0463571 15.9688 0.128873C15.8863 0.211389 15.84 0.323305 15.84 0.44C15.84 0.556695 15.8863 0.668611 15.9688 0.751127C16.0514 0.833643 16.1633 0.88 16.28 0.88H21.12V5.72C21.12 5.8367 21.1663 5.94861 21.2488 6.03113C21.3314 6.11364 21.4433 6.16 21.56 6.16C21.6767 6.16 21.7886 6.11364 21.8711 6.03113C21.9536 5.94861 22 5.8367 22 5.72V0.44C22 0.323305 21.9536 0.211389 21.8711 0.128873C21.7886 0.0463571 21.6767 0 21.56 0Z" fill="#53E5B5"/>
<path d="M20.68 0.880012C20.6221 0.879678 20.5647 0.890777 20.5111 0.912673C20.4575 0.93457 20.4088 0.966832 20.3676 1.00761L10.6876 10.6876C10.6464 10.7285 10.6137 10.7772 10.5913 10.8308C10.569 10.8844 10.5575 10.9419 10.5575 11C10.5575 11.0581 10.569 11.1156 10.5913 11.1692C10.6137 11.2228 10.6464 11.2715 10.6876 11.3124C10.7286 11.3537 10.7772 11.3864 10.8308 11.4087C10.8845 11.4311 10.942 11.4426 11 11.4426C11.0581 11.4426 11.1156 11.4311 11.1693 11.4087C11.2229 11.3864 11.2715 11.3537 11.3124 11.3124L20.9924 1.63241C21.0545 1.57087 21.0968 1.49224 21.114 1.40655C21.1312 1.32086 21.1225 1.232 21.089 1.15128C21.0555 1.07056 20.9987 1.00166 20.9258 0.953346C20.853 0.905034 20.7674 0.879504 20.68 0.880012Z" fill="#53E5B5"/>
</svg>
