<svg width="129" height="89" viewBox="0 0 129 89" fill="none" xmlns="http://www.w3.org/2000/svg">
<g clip-path="url(#clip0)">
<path d="M37.6094 10.8974C37.6094 9.20491 36.6148 8.10519 35.1622 8.10519C33.7096 8.10519 32.715 9.20491 32.715 10.8974V24.9511C32.715 30.7355 28.7222 34.4203 23.377 34.4203C18.0319 34.4203 14.0391 30.7355 14.0391 24.9511V10.8974C14.0391 9.20491 13.0373 8.10519 11.5919 8.10519C10.1465 8.10519 9.14469 9.20491 9.14469 10.8974V30.8925C9.1428 31.803 8.77957 32.6755 8.13451 33.3193C7.48946 33.9631 6.61512 34.3255 5.70288 34.3274C4.78939 34.3274 3.91322 33.9658 3.26662 33.3218C2.62002 32.6778 2.2558 31.8042 2.25391 30.8925V10.8974C2.25391 5.11303 6.24669 1.42822 11.5919 1.42822C16.9371 1.42822 20.9299 5.11303 20.9299 10.8974V24.9511C20.9299 26.6436 21.9316 27.7433 23.377 27.7433C24.8225 27.7433 25.8242 26.6436 25.8242 24.9511V10.8974C25.8242 5.11303 29.817 1.42822 35.1264 1.42822C40.4358 1.42822 44.4644 5.11303 44.4644 10.8974V30.8925C44.4625 31.803 44.0993 32.6755 43.4542 33.3193C42.8092 33.9631 41.9348 34.3255 41.0226 34.3274C40.1097 34.3256 39.2346 33.9633 38.5884 33.3197C37.9422 32.6762 37.5774 31.8036 37.5736 30.8925L37.6094 10.8974Z" fill="#222222"/>
<path d="M52.0492 33.7705C51.3222 33.7649 50.6266 33.4742 50.1125 32.9611C49.5984 32.4481 49.3071 31.7538 49.3015 31.0283V4.81317C49.3071 4.08829 49.5987 3.39481 50.113 2.8829C50.6272 2.37098 51.3229 2.08186 52.0492 2.07812H68.507C69.3776 2.08558 70.2105 2.43407 70.8262 3.0485C71.4419 3.66294 71.7911 4.49412 71.7985 5.36303C71.7911 6.23261 71.4421 7.06458 70.8267 7.68015C70.2112 8.29573 69.3783 8.64579 68.507 8.65511H56.2209V14.6108H67.1546C68.0266 14.6201 68.8602 14.9699 69.4768 15.5853C70.0934 16.2007 70.444 17.0326 70.4533 17.9029C70.444 18.7731 70.0934 19.6051 69.4768 20.2204C68.8602 20.8358 68.0266 21.1857 67.1546 21.1949H56.2209V27.1721H68.507C69.3789 27.1796 70.2128 27.529 70.8287 28.145C71.4446 28.761 71.7929 29.594 71.7985 30.4641C71.7911 31.3331 71.4419 32.1642 70.8262 32.7787C70.2105 33.3931 69.3776 33.7416 68.507 33.7491L52.0492 33.7705Z" fill="#222222"/>
<path d="M84.3566 8.65511H76.8648C75.9935 8.64579 75.1606 8.29573 74.5451 7.68015C73.9296 7.06458 73.5807 6.23261 73.5732 5.36303C73.5807 4.49412 73.9299 3.66294 74.5456 3.0485C75.1612 2.43407 75.9941 2.08558 76.8648 2.07812H98.7392C99.6106 2.08556 100.444 2.43381 101.061 3.04805C101.678 3.66228 102.029 4.49347 102.038 5.36303C102.029 6.23326 101.678 7.06523 101.061 7.68061C100.445 8.29599 99.6112 8.64582 98.7392 8.65511H91.2474V30.8855C91.2455 31.7959 90.8823 32.6685 90.2372 33.3122C89.5922 33.956 88.7178 34.3185 87.8056 34.3204C86.8927 34.3185 86.0176 33.9562 85.3714 33.3126C84.7252 32.6691 84.3604 31.7965 84.3566 30.8855V8.65511Z" fill="#222222"/>
<path d="M122.116 23.8514H114.424C113.553 23.844 112.719 23.4958 112.102 22.8815C111.485 22.2673 111.135 21.4361 111.125 20.5665C111.135 19.6963 111.485 18.8643 112.102 18.2489C112.718 17.6335 113.552 17.2837 114.424 17.2745H122.116V14.418C122.116 10.5332 119.519 7.99097 115.92 7.99097C112.32 7.99097 109.73 10.5332 109.73 14.418V30.8426C109.728 31.7543 109.364 32.6279 108.717 33.2719C108.071 33.9158 107.195 34.2775 106.281 34.2775C105.369 34.2756 104.494 33.9131 103.849 33.2694C103.204 32.6256 102.841 31.753 102.839 30.8426V14.418C102.808 12.6975 103.125 10.9884 103.772 9.39325C104.419 7.79814 105.382 6.3499 106.604 5.13543C107.826 3.92097 109.28 2.96533 110.881 2.32583C112.482 1.68634 114.196 1.37617 115.92 1.41397C117.644 1.37621 119.358 1.68633 120.959 2.32575C122.56 2.96516 124.016 3.92071 125.238 5.13506C126.46 6.34942 127.424 7.79759 128.071 9.39272C128.719 10.9879 129.037 12.6971 129.007 14.418V30.8426C129.005 31.7543 128.641 32.6279 127.994 33.2719C127.348 33.9158 126.472 34.2775 125.558 34.2775C124.646 34.2756 123.772 33.9131 123.126 33.2694C122.481 32.6256 122.118 31.753 122.116 30.8426V23.8514Z" fill="#222222"/>
<path d="M5.20203 64.9058C4.48699 64.8983 3.80334 64.6116 3.2977 64.1069C2.79206 63.6023 2.50469 62.92 2.49724 62.2064C2.50469 61.4928 2.79206 60.8106 3.2977 60.3059C3.80334 59.8013 4.48699 59.5145 5.20203 59.5071H14.6259C14.9627 59.5296 15.3006 59.4828 15.6185 59.3694C15.9364 59.2561 16.2275 59.0787 16.4738 58.8483C16.7201 58.6179 16.9163 58.3395 17.0502 58.0302C17.184 57.7209 17.2527 57.3874 17.252 57.0505C17.256 56.713 17.1895 56.3783 17.0567 56.0679C16.9238 55.7574 16.7276 55.4781 16.4805 55.2476C16.2333 55.0171 15.9408 54.8405 15.6215 54.7292C15.3021 54.6179 14.9631 54.5743 14.6259 54.6011H9.61701C4.73693 54.6011 1.41675 51.1234 1.41675 46.7887C1.41675 42.4541 4.75124 38.8906 9.63131 38.8906H19.1339C19.8495 38.8962 20.5342 39.1824 21.0402 39.6874C21.5463 40.1925 21.833 40.8758 21.8387 41.59C21.833 42.3042 21.5463 42.9875 21.0402 43.4925C20.5342 43.9975 19.8495 44.2837 19.1339 44.2893H9.71003C9.37415 44.2668 9.0372 44.3135 8.72016 44.4264C8.40313 44.5394 8.11278 44.7163 7.86715 44.946C7.62151 45.1757 7.42586 45.4534 7.29235 45.7618C7.15885 46.0702 7.09035 46.4028 7.0911 46.7387C7.08613 47.0762 7.15172 47.411 7.28369 47.7218C7.41565 48.0326 7.61108 48.3125 7.85752 48.5436C8.10395 48.7748 8.39598 48.9521 8.71495 49.0643C9.03391 49.1765 9.37282 49.2211 9.71003 49.1953H14.7189C19.5918 49.1953 22.912 52.673 22.912 57.0077C22.912 61.3424 19.5918 64.8987 14.7189 64.8987L5.20203 64.9058Z" fill="#222222"/>
<path d="M41.7596 56.7435H35.4484C34.7328 56.7379 34.0481 56.4517 33.542 55.9466C33.036 55.4416 32.7492 54.7583 32.7436 54.0441C32.7511 53.3305 33.0384 52.6482 33.5441 52.1436C34.0497 51.639 34.7334 51.3522 35.4484 51.3448H41.7596V49.0167C41.7596 45.8247 39.6129 43.7395 36.6792 43.7395C33.7454 43.7395 31.5916 45.8247 31.5916 49.0167V62.5135C31.5823 63.2587 31.2815 63.9708 30.7535 64.4978C30.2254 65.0248 29.5119 65.325 28.7651 65.3343C28.0184 65.325 27.3049 65.0248 26.7768 64.4978C26.2487 63.9708 25.948 63.2587 25.9387 62.5135V49.0167C25.9133 47.6048 26.1739 46.2022 26.7048 44.8931C27.2356 43.5841 28.0259 42.3955 29.0282 41.3986C30.0304 40.4016 31.2241 39.6169 32.5375 39.0915C33.851 38.5661 35.2573 38.3107 36.672 38.3408C38.0867 38.3107 39.493 38.5661 40.8065 39.0915C42.1199 39.6169 43.3136 40.4016 44.3158 41.3986C45.3181 42.3955 46.1083 43.5841 46.6392 44.8931C47.1701 46.2022 47.4307 47.6048 47.4053 49.0167V62.5135C47.396 63.2587 47.0953 63.9708 46.5672 64.4978C46.0391 65.0248 45.3256 65.325 44.5789 65.3343C43.8321 65.325 43.1186 65.0248 42.5905 64.4978C42.0625 63.9708 41.7617 63.2587 41.7524 62.5135L41.7596 56.7435Z" fill="#222222"/>
<path d="M56.9223 55.5794V62.5349C56.913 63.2801 56.6122 63.9922 56.0842 64.5192C55.5561 65.0462 54.8426 65.3464 54.0959 65.3556C53.3429 65.3557 52.6203 65.0596 52.0845 64.5316C51.5487 64.0037 51.2431 63.2862 51.2336 62.5349V41.1472C51.2374 40.5529 51.4751 39.984 51.8954 39.5632C52.3158 39.1423 52.8851 38.9033 53.4805 38.8977H66.7182C67.4333 38.9051 68.1169 39.1919 68.6226 39.6965C69.1282 40.2012 69.4156 40.8834 69.423 41.5971C69.4156 42.3107 69.1282 42.9929 68.6226 43.4976C68.1169 44.0022 67.4333 44.289 66.7182 44.2964H56.8865V50.1807H65.6163C66.3313 50.1881 67.015 50.4749 67.5206 50.9795C68.0263 51.4842 68.3136 52.1664 68.321 52.88C68.3136 53.5937 68.0263 54.2759 67.5206 54.7806C67.015 55.2852 66.3313 55.572 65.6163 55.5794H56.9223Z" fill="#222222"/>
<path d="M87.6553 56.7436H81.3441C80.6285 56.738 79.9438 56.4518 79.4377 55.9468C78.9317 55.4418 78.6449 54.7584 78.6393 54.0443C78.6468 53.3307 78.9341 52.6484 79.4398 52.1438C79.9454 51.6391 80.6291 51.3524 81.3441 51.3449H87.6553V49.0169C87.6553 45.8248 85.5086 43.7396 82.5749 43.7396C79.6411 43.7396 77.4944 45.8248 77.4944 49.0169V62.5137C77.4851 63.2589 77.1844 63.971 76.6563 64.498C76.1283 65.025 75.4147 65.3252 74.668 65.3344C73.915 65.3345 73.1924 65.0384 72.6566 64.5104C72.1209 63.9824 71.8152 63.265 71.8058 62.5137V49.0169C71.7794 47.6046 72.0393 46.2016 72.5698 44.8921C73.1003 43.5826 73.8905 42.3936 74.893 41.3965C75.8955 40.3993 77.0895 39.6147 78.4034 39.0896C79.7174 38.5645 81.1241 38.3099 82.5391 38.3409C83.9541 38.3099 85.3608 38.5645 86.6747 39.0896C87.9886 39.6147 89.1827 40.3993 90.1851 41.3965C91.1876 42.3936 91.9778 43.5826 92.5084 44.8921C93.0389 46.2016 93.2988 47.6046 93.2724 49.0169V62.5137C93.2631 63.2589 92.9623 63.971 92.4343 64.498C91.9062 65.025 91.1927 65.3252 90.4459 65.3344C89.6992 65.3252 88.9857 65.025 88.4576 64.498C87.9295 63.971 87.6288 63.2589 87.6195 62.5137L87.6553 56.7436Z" fill="#222222"/>
<path d="M105.687 54.6439C105.29 54.1579 105.073 53.5501 105.072 52.9229C105.076 52.2631 105.34 51.6313 105.807 51.1647C106.275 50.6982 106.908 50.4344 107.569 50.4306H110.603C111.014 50.4431 111.424 50.3728 111.807 50.2239C112.19 50.075 112.54 49.8506 112.834 49.564C113.129 49.2774 113.362 48.9345 113.521 48.5559C113.68 48.1772 113.761 47.7704 113.759 47.3599C113.76 46.95 113.678 46.5441 113.519 46.1662C113.36 45.7884 113.126 45.4464 112.832 45.1606C112.537 44.8748 112.188 44.651 111.805 44.5025C111.423 44.354 111.014 44.284 110.603 44.2964H102.818V62.5349C102.809 63.2801 102.508 63.9922 101.98 64.5192C101.452 65.0462 100.738 65.3464 99.9915 65.3556C99.2447 65.3464 98.5312 65.0462 98.0031 64.5192C97.4751 63.9922 97.1743 63.2801 97.165 62.5349V41.1472C97.1706 40.5523 97.4099 39.9834 97.8314 39.5627C98.2529 39.1421 98.823 38.9033 99.419 38.8977H111.218C112.303 38.9042 113.375 39.1242 114.374 39.545C115.373 39.9659 116.279 40.5792 117.04 41.3501C117.801 42.1209 118.403 43.034 118.81 44.0371C119.216 45.0402 119.421 46.1136 119.412 47.1957C119.417 48.9645 118.855 50.6885 117.808 52.116C116.762 53.5434 115.285 54.5993 113.594 55.1295L118.675 60.6496C118.929 60.9204 119.125 61.2395 119.253 61.5879C119.381 61.9363 119.437 62.3068 119.419 62.6773C119.4 63.0478 119.307 63.4108 119.144 63.7445C118.982 64.0783 118.754 64.3761 118.474 64.6201C117.914 65.1081 117.186 65.3593 116.443 65.3207C115.7 65.282 115.002 64.9565 114.496 64.413L105.687 54.6439Z" fill="#222222"/>
<path d="M122.818 41.2687C122.827 40.5235 123.128 39.8114 123.656 39.2844C124.184 38.7574 124.897 38.4573 125.644 38.448C126.391 38.4573 127.104 38.7574 127.632 39.2844C128.16 39.8114 128.461 40.5235 128.47 41.2687V62.535C128.461 63.2803 128.16 63.9924 127.632 64.5194C127.104 65.0464 126.391 65.3465 125.644 65.3558C124.897 65.3465 124.184 65.0464 123.656 64.5194C123.128 63.9924 122.827 63.2803 122.818 62.535V41.2687Z" fill="#222222"/>
<path d="M39.7489 69.176H27.0979V73.4321H31.291V88.8784H35.5557V73.4321H39.7489V69.176Z" fill="#222222"/>
<path fill-rule="evenodd" clip-rule="evenodd" d="M15.3486 69.1833H5.86753L2.45435 71.5042V88.8786H6.74767V81.8874H11.1125V88.8786H15.4059V73.4323L15.3486 69.1833ZM11.0553 77.6385H6.69043V73.4395H11.0553V77.6385Z" fill="#222222"/>
<path fill-rule="evenodd" clip-rule="evenodd" d="M16.8513 69.0833H21.2878V84.9937H30.132V88.9999H16.8513V69.0833Z" fill="#222222"/>
<path fill-rule="evenodd" clip-rule="evenodd" d="M48.3142 69.1762H48.2642V78.224H48.2928L48.2856 78.2382L56.8508 82.1873V84.6367H52.5718V82.5015H48.3142V84.6367V88.8714V88.8857H61.1227V84.6367H61.1084V79.5094H61.0869L61.1084 79.4737L52.5217 75.5103V73.4108H56.8723V75.546H61.1227V73.4108V69.1762V69.1619H48.3142V69.1762Z" fill="#222222"/>
<path fill-rule="evenodd" clip-rule="evenodd" d="M115.777 69.1762H115.727V78.224H115.755L115.748 78.2382L124.313 82.1873V84.6367H120.034V82.5015H115.777V84.6367V88.8714V88.8857H128.585V84.6367H128.571V79.5094H128.549L128.571 79.4737L119.984 75.5103V73.4108H124.335V75.546H128.585V73.4108V69.1762V69.1619H115.777V69.1762Z" fill="#222222"/>
<path fill-rule="evenodd" clip-rule="evenodd" d="M96.4495 78.881L91.9201 69.2405L91.8914 69.2476H87.6482V88.8857H91.9057V79.2095L96.4495 88.8715V88.8857H100.707V69.2476H96.4495V78.881Z" fill="#222222"/>
<path fill-rule="evenodd" clip-rule="evenodd" d="M76.9221 73.475H79.5124V84.6366H76.9221V88.8856H86.3531V84.6366H83.7628V73.475H86.3531V69.2261H76.9221V73.475Z" fill="#222222"/>
<path fill-rule="evenodd" clip-rule="evenodd" d="M101.931 73.4821H106.109V88.8856H110.367V73.4821H114.546V69.2332H101.931V73.4821Z" fill="#222222"/>
<path fill-rule="evenodd" clip-rule="evenodd" d="M66.3248 69.2475H66.1531L62.7471 71.5541V88.8785H66.9975V81.9016H71.348V88.8785H75.6413V69.2261H66.3391L66.3248 69.2475ZM71.3337 77.6669H66.9831V73.4822H71.3337V77.6669Z" fill="#222222"/>
<path d="M36.1783 9.46913C36.1783 7.77668 35.1836 6.67697 33.7311 6.67697C32.2785 6.67697 31.2839 7.77668 31.2839 9.46913V23.5229C31.2839 29.3072 27.2911 32.992 21.9459 32.992C16.6007 32.992 12.6079 29.3072 12.6079 23.5229V9.46913C12.6079 7.77668 11.6061 6.67697 10.1607 6.67697C8.7153 6.67697 7.71354 7.77668 7.71354 9.46913V29.4643C7.71165 30.3747 7.34842 31.2473 6.70336 31.8911C6.0583 32.5348 5.18397 32.8973 4.27173 32.8992C3.35824 32.8992 2.48207 32.5375 1.83546 31.8936C1.18886 31.2496 0.824649 30.376 0.822754 29.4643V9.46913C0.822754 3.68481 4.81553 0 10.1607 0C15.5059 0 19.4987 3.68481 19.4987 9.46913V23.5229C19.4987 25.2154 20.5005 26.3151 21.9459 26.3151C23.3913 26.3151 24.3931 25.2154 24.3931 23.5229V9.46913C24.3931 3.68481 28.3859 0 33.6953 0C39.0047 0 43.0332 3.68481 43.0332 9.46913V29.4643C43.0314 30.3747 42.6681 31.2473 42.0231 31.8911C41.378 32.5348 40.5037 32.8973 39.5914 32.8992C38.6785 32.8973 37.8034 32.5351 37.1572 31.8915C36.5111 31.248 36.1463 30.3754 36.1425 29.4643L36.1783 9.46913Z" fill="#53E5B5"/>
<path d="M50.6181 32.3423C49.8911 32.3367 49.1955 32.046 48.6814 31.5329C48.1673 31.0199 47.876 30.3256 47.8704 29.6001V3.38495C47.876 2.66007 48.1675 1.96659 48.6818 1.45468C49.1961 0.942762 49.8917 0.653636 50.6181 0.649902H67.0758C67.9465 0.657361 68.7794 1.00585 69.395 1.62028C70.0107 2.23471 70.3599 3.0659 70.3674 3.93481C70.3599 4.80439 70.011 5.63636 69.3955 6.25193C68.78 6.8675 67.9471 7.21757 67.0758 7.22688H54.7898V13.1826H65.7234C66.5954 13.1919 67.429 13.5417 68.0457 14.1571C68.6623 14.7725 69.0128 15.6044 69.0221 16.4746C69.0128 17.3449 68.6623 18.1768 68.0457 18.7922C67.429 19.4076 66.5954 19.7574 65.7234 19.7667H54.7898V25.7438H67.0758C67.9477 25.7513 68.7817 26.1008 69.3975 26.7168C70.0134 27.3327 70.3618 28.1658 70.3674 29.0359C70.3599 29.9048 70.0107 30.736 69.395 31.3505C68.7794 31.9649 67.9465 32.3134 67.0758 32.3208L50.6181 32.3423Z" fill="#53E5B5"/>
<path d="M82.9255 7.22688H75.4336C74.5623 7.21757 73.7294 6.8675 73.114 6.25193C72.4985 5.63636 72.1495 4.80439 72.1421 3.93481C72.1496 3.0659 72.4988 2.23471 73.1144 1.62028C73.7301 1.00585 74.563 0.657361 75.4336 0.649902H97.3081C98.1794 0.657333 99.0131 1.00558 99.6299 1.61982C100.247 2.23406 100.597 3.06525 100.607 3.93481C100.598 4.80504 100.247 5.63701 99.6303 6.25239C99.0137 6.86777 98.1801 7.2176 97.3081 7.22688H89.8162V29.4572C89.8144 30.3677 89.4511 31.2402 88.8061 31.884C88.161 32.5277 87.2867 32.8902 86.3744 32.8921C85.4615 32.8903 84.5864 32.528 83.9403 31.8844C83.2941 31.2409 82.9292 30.3683 82.9255 29.4572V7.22688Z" fill="#53E5B5"/>
<path d="M120.685 22.4232H112.993C112.122 22.4158 111.288 22.0675 110.671 21.4533C110.054 20.8391 109.704 20.0078 109.694 19.1383C109.704 18.2681 110.054 17.4361 110.671 16.8207C111.287 16.2053 112.121 15.8555 112.993 15.8462H120.685V12.9898C120.685 9.105 118.088 6.56275 114.488 6.56275C110.889 6.56275 108.299 9.105 108.299 12.9898V29.4144C108.297 30.326 107.933 31.1997 107.286 31.8437C106.64 32.4876 105.763 32.8493 104.85 32.8493C103.938 32.8474 103.063 32.4849 102.418 31.8411C101.773 31.1974 101.41 30.3248 101.408 29.4144V12.9898C101.377 11.2692 101.694 9.56013 102.341 7.96502C102.988 6.36991 103.951 4.92167 105.173 3.70721C106.394 2.49275 107.849 1.53711 109.45 0.897612C111.051 0.258117 112.765 -0.0520482 114.488 -0.0142519C116.213 -0.0520169 117.927 0.25811 119.528 0.897525C121.129 1.53694 122.584 2.49248 123.807 3.70684C125.029 4.9212 125.992 6.36936 126.64 7.9645C127.288 9.55964 127.606 11.2689 127.576 12.9898V29.4144C127.574 30.326 127.21 31.1997 126.563 31.8437C125.917 32.4876 125.04 32.8493 124.127 32.8493C123.215 32.8474 122.34 32.4849 121.695 31.8411C121.05 31.1974 120.687 30.3248 120.685 29.4144V22.4232Z" fill="#53E5B5"/>
<path d="M3.77088 63.4776C3.05583 63.4701 2.37219 63.1833 1.86654 62.6787C1.3609 62.1741 1.07354 61.4918 1.06609 60.7782C1.07354 60.0646 1.3609 59.3823 1.86654 58.8777C2.37219 58.3731 3.05583 58.0863 3.77088 58.0789H13.1947C13.5316 58.1014 13.8694 58.0545 14.1873 57.9412C14.5052 57.8279 14.7964 57.6505 15.0427 57.4201C15.289 57.1897 15.4851 56.9112 15.619 56.6019C15.7529 56.2927 15.8216 55.9592 15.8208 55.6223C15.8249 55.2848 15.7584 54.9501 15.6255 54.6397C15.4927 54.3292 15.2964 54.0498 15.0493 53.8193C14.8022 53.5889 14.5096 53.4123 14.1903 53.301C13.871 53.1897 13.5319 53.1461 13.1947 53.1729H8.18586C3.30578 53.1729 -0.0144043 49.6952 -0.0144043 45.3605C-0.0144043 41.0258 3.32008 37.4624 8.20016 37.4624H17.7027C18.4183 37.468 19.103 37.7542 19.6091 38.2592C20.1151 38.7642 20.4019 39.4476 20.4075 40.1618C20.4019 40.8759 20.1151 41.5593 19.6091 42.0643C19.103 42.5693 18.4183 42.8555 17.7027 42.8611H8.27888C7.943 42.8386 7.60605 42.8852 7.28901 42.9982C6.97197 43.1112 6.68163 43.288 6.43599 43.5178C6.19036 43.7475 5.99471 44.0252 5.8612 44.3336C5.7277 44.642 5.65919 44.9745 5.65995 45.3105C5.65498 45.648 5.72057 45.9828 5.85253 46.2936C5.9845 46.6044 6.17993 46.8842 6.42636 47.1154C6.6728 47.3466 6.96483 47.5239 7.28379 47.6361C7.60276 47.7483 7.94167 47.7929 8.27888 47.7671H13.2878C18.1607 47.7671 21.4808 51.2448 21.4808 55.5795C21.4808 59.9141 18.1607 63.4704 13.2878 63.4704L3.77088 63.4776Z" fill="#53E5B5"/>
<path d="M40.3284 55.3152H34.0173C33.3016 55.3096 32.6169 55.0234 32.1109 54.5184C31.6048 54.0134 31.3181 53.3301 31.3125 52.6159C31.3199 51.9023 31.6073 51.22 32.1129 50.7154C32.6185 50.2108 33.3022 49.924 34.0173 49.9165H40.3284V47.5885C40.3284 44.3964 38.1818 42.3112 35.248 42.3112C32.3142 42.3112 30.1604 44.3964 30.1604 47.5885V61.0853C30.1511 61.8305 29.8504 62.5426 29.3223 63.0696C28.7943 63.5966 28.0807 63.8968 27.334 63.906C26.5872 63.8968 25.8737 63.5966 25.3457 63.0696C24.8176 62.5426 24.5168 61.8305 24.5075 61.0853V47.5885C24.4822 46.1765 24.7427 44.774 25.2736 43.4649C25.8045 42.1558 26.5948 40.9672 27.597 39.9703C28.5993 38.9734 29.7929 38.1887 31.1064 37.6633C32.4199 37.1378 33.8261 36.8825 35.2409 36.9125C36.6556 36.8825 38.0618 37.1378 39.3753 37.6633C40.6888 38.1887 41.8824 38.9734 42.8847 39.9703C43.8869 40.9672 44.6772 42.1558 45.2081 43.4649C45.7389 44.774 45.9995 46.1765 45.9742 47.5885V61.0853C45.9649 61.8305 45.6641 62.5426 45.1361 63.0696C44.608 63.5966 43.8944 63.8968 43.1477 63.906C42.401 63.8968 41.6874 63.5966 41.1594 63.0696C40.6313 62.5426 40.3306 61.8305 40.3213 61.0853L40.3284 55.3152Z" fill="#53E5B5"/>
<path d="M55.4911 54.1512V61.1066C55.4819 61.8519 55.1811 62.564 54.653 63.091C54.125 63.618 53.4114 63.9181 52.6647 63.9274C51.9118 63.9274 51.1891 63.6314 50.6533 63.1034C50.1176 62.5754 49.8119 61.858 49.8025 61.1066V39.7189C49.8062 39.1247 50.0439 38.5558 50.4643 38.135C50.8846 37.7141 51.4539 37.4751 52.0493 37.4695H65.2871C66.0021 37.4769 66.6858 37.7637 67.1914 38.2683C67.697 38.7729 67.9844 39.4552 67.9919 40.1688C67.9844 40.8824 67.697 41.5647 67.1914 42.0693C66.6858 42.574 66.0021 42.8607 65.2871 42.8682H55.4554V48.7525H64.1851C64.9002 48.7599 65.5838 49.0467 66.0895 49.5513C66.5951 50.0559 66.8824 50.7382 66.8899 51.4518C66.8824 52.1654 66.5951 52.8477 66.0895 53.3523C65.5838 53.8569 64.9002 54.1437 64.1851 54.1512H55.4911Z" fill="#53E5B5"/>
<path d="M86.2241 55.3154H79.9129C79.1973 55.3098 78.5126 55.0236 78.0066 54.5186C77.5005 54.0136 77.2138 53.3302 77.2082 52.616C77.2156 51.9024 77.503 51.2202 78.0086 50.7155C78.5143 50.2109 79.1979 49.9241 79.9129 49.9167H86.2241V47.5887C86.2241 44.3966 84.0775 42.3114 81.1437 42.3114C78.2099 42.3114 76.0633 44.3966 76.0633 47.5887V61.0854C76.054 61.8307 75.7532 62.5428 75.2252 63.0698C74.6971 63.5968 73.9836 63.8969 73.2368 63.9062C72.4839 63.9062 71.7612 63.6102 71.2255 63.0822C70.6897 62.5542 70.384 61.8368 70.3746 61.0854V47.5887C70.3483 46.1764 70.6081 44.7734 71.1386 43.4639C71.6692 42.1544 72.4594 40.9654 73.4618 39.9682C74.4643 38.9711 75.6584 38.1865 76.9723 37.6614C78.2862 37.1363 79.6929 36.8817 81.1079 36.9127C82.5229 36.8817 83.9296 37.1363 85.2435 37.6614C86.5575 38.1865 87.7515 38.9711 88.754 39.9682C89.7565 40.9654 90.5467 42.1544 91.0772 43.4639C91.6077 44.7734 91.8676 46.1764 91.8412 47.5887V61.0854C91.832 61.8307 91.5312 62.5428 91.0031 63.0698C90.4751 63.5968 89.7615 63.8969 89.0148 63.9062C88.2681 63.8969 87.5545 63.5968 87.0264 63.0698C86.4984 62.5428 86.1976 61.8307 86.1883 61.0854L86.2241 55.3154Z" fill="#53E5B5"/>
<path d="M104.256 53.2157C103.859 52.7297 103.642 52.1219 103.641 51.4947C103.644 50.8348 103.909 50.2031 104.376 49.7365C104.844 49.2699 105.477 49.0062 106.138 49.0024H109.172C109.583 49.0149 109.993 48.9446 110.376 48.7957C110.759 48.6468 111.109 48.4223 111.403 48.1357C111.698 47.8492 111.931 47.5063 112.09 47.1276C112.249 46.749 112.33 46.3422 112.328 45.9317C112.329 45.5218 112.247 45.1159 112.088 44.738C111.929 44.3602 111.695 44.0182 111.4 43.7324C111.106 43.4465 110.757 43.2227 110.374 43.0743C109.991 42.9258 109.583 42.8557 109.172 42.8682H101.387V61.1066C101.377 61.8519 101.077 62.564 100.549 63.091C100.021 63.618 99.307 63.9181 98.5603 63.9274C97.8136 63.9181 97.1001 63.618 96.572 63.091C96.0439 62.564 95.7432 61.8519 95.7339 61.1066V39.7189C95.7395 39.1241 95.9787 38.5551 96.4002 38.1345C96.8217 37.7138 97.3918 37.4751 97.9879 37.4695H109.787C110.872 37.476 111.944 37.696 112.943 38.1168C113.942 38.5376 114.848 39.151 115.609 39.9219C116.37 40.6927 116.971 41.6058 117.378 42.6089C117.785 43.612 117.99 44.6853 117.98 45.7675C117.986 47.5363 117.424 49.2603 116.377 50.6877C115.33 52.1152 113.854 53.1711 112.163 53.7013L117.243 59.2214C117.497 59.4922 117.694 59.8113 117.822 60.1597C117.95 60.508 118.006 60.8785 117.987 61.249C117.969 61.6196 117.876 61.9825 117.713 62.3163C117.551 62.6501 117.323 62.9479 117.043 63.1919C116.483 63.6798 115.754 63.9311 115.012 63.8925C114.269 63.8538 113.571 63.5283 113.065 62.9848L104.256 53.2157Z" fill="#53E5B5"/>
<path d="M121.386 39.8405C121.396 39.0953 121.697 38.3832 122.225 37.8562C122.753 37.3292 123.466 37.029 124.213 37.0198C124.96 37.029 125.673 37.3292 126.201 37.8562C126.729 38.3832 127.03 39.0953 127.039 39.8405V61.1068C127.03 61.8521 126.729 62.5642 126.201 63.0912C125.673 63.6182 124.96 63.9183 124.213 63.9276C123.466 63.9183 122.753 63.6182 122.225 63.0912C121.697 62.5642 121.396 61.8521 121.386 61.1068V39.8405Z" fill="#53E5B5"/>
<path d="M38.3177 67.7478H25.6667V72.0039H29.8599V87.4502H34.1246V72.0039H38.3177V67.7478Z" fill="#C4C4C4"/>
<path fill-rule="evenodd" clip-rule="evenodd" d="M13.9175 67.7551H4.43638L1.02319 70.076V87.4504H5.31651V80.4592H9.6814V87.4504H13.9747V72.0041L13.9175 67.7551ZM9.62414 76.2102H5.25928V72.0112H9.62414V76.2102Z" fill="#C4C4C4"/>
<path fill-rule="evenodd" clip-rule="evenodd" d="M15.4202 67.655H19.8566V83.5655H28.7008V87.5717H15.4202V67.655Z" fill="#C4C4C4"/>
<path fill-rule="evenodd" clip-rule="evenodd" d="M46.8831 67.7479H46.833V76.7957H46.8616L46.8545 76.81L55.4197 80.7591V83.2085H51.1406V81.0733H46.8831V83.2085V87.4432V87.4575H59.6915V83.2085H59.6772V78.0812H59.6557L59.6772 78.0454L51.0906 74.0821V71.9826H55.4411V74.1178H59.6915V71.9826V67.7479V67.7336H46.8831V67.7479Z" fill="#C4C4C4"/>
<path fill-rule="evenodd" clip-rule="evenodd" d="M114.346 67.7479H114.295V76.7957H114.324L114.317 76.81L122.882 80.7591V83.2085H118.603V81.0733H114.346V83.2085V87.4432V87.4575H127.154V83.2085H127.14V78.0812H127.118L127.14 78.0454L118.553 74.0821V71.9826H122.904V74.1178H127.154V71.9826V67.7479V67.7336H114.346V67.7479Z" fill="#C4C4C4"/>
<path fill-rule="evenodd" clip-rule="evenodd" d="M95.0184 77.4528L90.4817 67.8123L90.4603 67.8194H86.217V87.4575H90.4746V77.7813L95.0184 87.4432V87.4575H99.2759V67.8194H95.0184V77.4528Z" fill="#C4C4C4"/>
<path fill-rule="evenodd" clip-rule="evenodd" d="M75.491 72.0468H78.0813V83.2084H75.491V87.4574H84.922V83.2084H82.3317V72.0468H84.922V67.7979H75.491V72.0468Z" fill="#C4C4C4"/>
<path fill-rule="evenodd" clip-rule="evenodd" d="M100.5 72.0539H104.678V87.4573H108.936V72.0539H113.115V67.8049H100.5V72.0539Z" fill="#C4C4C4"/>
<path fill-rule="evenodd" clip-rule="evenodd" d="M64.8937 67.8193H64.7219L61.3159 70.1258V87.4503H65.5663V80.4734H69.9169V87.4503H74.2102V67.7979H64.908L64.8937 67.8193ZM69.9026 76.2387H65.552V72.054H69.9026V76.2387Z" fill="#C4C4C4"/>
</g>
<defs>
<clipPath id="clip0">
<rect width="129" height="89" fill="white"/>
</clipPath>
</defs>
</svg>
