<svg width="48" height="49" viewBox="0 0 48 49" fill="none" xmlns="http://www.w3.org/2000/svg">
<path d="M24 0.00610352C10.7452 0.00610352 0 10.7513 0 24.0061C0 37.2609 10.7452 48.0061 24 48.0061C37.2548 48.0061 48 37.2609 48 24.0061C48 10.7513 37.2548 0.00610352 24 0.00610352ZM34.7067 18.5246V19.2422C34.7067 26.5266 29.1783 34.9296 19.0138 34.9296C16.0102 34.9381 13.0683 34.0772 10.5432 32.4506C10.9798 32.5025 11.4191 32.5289 11.8588 32.5296C14.3392 32.5349 16.7495 31.7071 18.7032 30.1789C17.5525 30.1584 16.4371 29.7781 15.5135 29.0915C14.5898 28.4048 13.9043 27.4463 13.5531 26.3503C14.3801 26.5042 15.2312 26.4705 16.0435 26.2515C14.7956 26.0001 13.673 25.3249 12.866 24.3403C12.0591 23.3558 11.6174 22.1225 11.6158 20.8496V20.776C12.3831 21.2011 13.2407 21.4372 14.1175 21.4649C12.9575 20.6836 12.1376 19.4908 11.8235 18.128C11.5094 16.7651 11.7246 15.3338 12.4257 14.1236C13.8147 15.8214 15.5443 17.209 17.5029 18.1968C19.4616 19.1845 21.6056 19.7504 23.7965 19.858C23.7036 19.4446 23.6564 19.0223 23.6558 18.5987C23.6569 17.4933 23.99 16.4138 24.6119 15.5C25.2338 14.5862 26.1158 13.8803 27.1437 13.4738C28.1716 13.0672 29.2979 12.9788 30.3766 13.22C31.4553 13.4612 32.4367 14.0208 33.1936 14.8264C34.4287 14.5842 35.6131 14.1316 36.6948 13.4881C36.2863 14.7676 35.4248 15.854 34.2721 16.5434C35.365 16.4107 36.4325 16.1176 37.44 15.6738C36.7051 16.7786 35.7796 17.7439 34.7067 18.5246Z" fill="#222222"/>
</svg>
